# xmcd
#
# Track frame offsets: 
#        150
#        15750
#        29568
#        42468
#        55843
#        69430
#        82537
#        93810
#        107768
#        121047
#        133517
#        146534
#        158337
#        171817
#        184348
#        196328
#        209129
#        222187
#        234286
#        248100
#        262414
#        273900
#        288933
#        301228
#        314204
#
# Disc length: 4339 seconds
#
# Revision: 2
# Processed by: cddbd v1.5.2PL0 Copyright (c) Steve Scherf et al.
# Submitted via: ExactAudioCopy v1.3
#
DISCID=5d10f119
DTITLE=Various Artist - Steelin' It:_The Steel Guitar Story_CD1
DYEAR=2008
DGENRE=Instrumental
TTITLE0=Andy Sannella - Slidin' on the Frets
TTITLE1=Sol Hoopii and His Novelty Quartette - Iniki Malie
TTITLE2=Kalama's Quartet - Wai O Minnehaha
TTITLE3=Four Hawaiian Guitars - Black Boy Blues
TTITLE4=Sam Ku West - Farewell Blues
TTITLE5=Sam Ku West - The Memphis Blues
TTITLE6=Sam Ku West - St. Louis Blues
TTITLE7=H.M. Barnes and His Blue Ridge Ramblers - Honolulu Stomp
TTITLE8=King Nawahi's Hawaiians - Hawaiian Capers
TTITLE9=Waikiki Hawaiian Trio - My Best Girl
TTITLE10=Segis Luvaun - Wela-Ka-Hao
TTITLE11=Kanui and Lula - Ua Like No A Like
TTITLE12=Andy Sannella - Blues of the Guitar
TTITLE13=Palakiko and Paaluhi - Honolulu March
TTITLE14=Hawaiian Beachcombers - Hawaiian Melody
TTITLE15=Roy Smeck Hawaiian Orchestra - Kalima Waltz
TTITLE16=Jim and Bob, the Genial Hawaiians - Saint Louis Blues
TTITLE17=Jim and Bob, the Genial Hawaiians - By the Waters of Minnetonka
TTITLE18=Sol Hoopii and His Novelty Quartette - An Orange Grove in Calif
TTITLE18=ornia
TTITLE19=Sol Hoopii and His Novelty Quartette - Oh, Lady Be Good!
TTITLE20=Roy Smeck's Serenaders - Guitarese
TTITLE21=Roy Smeck's Serenaders - Slippery Fingers
TTITLE22=Roy Smeck's Serenaders - Limehouse Blues
TTITLE23=Tau Moe and the Original Hawaiians - Hula Blues
TTITLE24=Tau Moe and the Original Hawaiians - Rhythm of the Island
EXTD=Compiled and annotated by Adam Komorowski.\nProduced for release 
EXTD=by Joop Visser Productions.\nDigital remastering by Peter Rynston
EXTD=at Tall Order Mastering, Crowborough GB-ESX.\n4CD: Proper Proper
EXTD=Box 142 (2008-04-14), UPC 805520021425.
EXTT0=
EXTT1=
EXTT2=
EXTT3=
EXTT4=
EXTT5=
EXTT6=
EXTT7=
EXTT8=
EXTT9=
EXTT10=
EXTT11=
EXTT12=
EXTT13=
EXTT14=
EXTT15=
EXTT16=
EXTT17=
EXTT18=
EXTT19=
EXTT20=
EXTT21=
EXTT22=
EXTT23=
EXTT24=
PLAYORDER=
